<svg xmlns="http://www.w3.org/2000/svg" viewBox="0 0 64 64">
  <defs>
    <linearGradient id="tornasol" x1="4" y1="6" x2="56" y2="58" gradientUnits="userSpaceOnUse">
      <stop offset="0%" stop-color="#ff8ad8"/>
      <stop offset="28%" stop-color="#8ad8ff"/>
      <stop offset="58%" stop-color="#b4ff9e"/>
      <stop offset="82%" stop-color="#fff08a"/>
      <stop offset="100%" stop-color="#ff8ad8"/>
    </linearGradient>
  </defs>

  <!-- fondo mesa de trabajo -->
  <rect x="0" y="0" width="64" height="64" rx="14" fill="#15161b"/>

  <!-- hoja de documento con esquina doblada -->
  <path d="M17 8 H39 L47 16 V54 A3 3 0 0 1 44 57 H17 A3 3 0 0 1 14 54 V11 A3 3 0 0 1 17 8 Z"
        fill="url(#tornasol)"/>

  <!-- pliegue de la esquina -->
  <path d="M39 8 L47 16 H41 A2 2 0 0 1 39 14 Z" fill="#0c0d10" opacity=".28"/>

  <!-- líneas de texto -->
  <rect x="19" y="27" width="20" height="2.6" rx="1.3" fill="#15161b" opacity=".62"/>
  <rect x="19" y="34" width="24" height="2.6" rx="1.3" fill="#15161b" opacity=".62"/>
  <rect x="19" y="41" width="14" height="2.6" rx="1.3" fill="#15161b" opacity=".62"/>
</svg>
